<?xml version="1.0" standalone="no"?><!DOCTYPE svg PUBLIC "-//W3C//DTD SVG 1.1//EN" "http://www.w3.org/Graphics/SVG/1.1/DTD/svg11.dtd"><svg t="1612933735870" class="icon" viewBox="0 0 1024 1024" version="1.1" xmlns="http://www.w3.org/2000/svg" p-id="4723" xmlns:xlink="http://www.w3.org/1999/xlink" width="200" height="200"><defs><style type="text/css"></style></defs><path d="M88.6 959.6h48.6c43.4-185.8 136.4-331.4 252.6-392.7L355.9 533C231.5 606 133 762.5 88.6 959.6zM621.1 509c75.8-39.2 127.7-118.1 127.7-209.4 0-130.2-105.5-235.7-235.7-235.7S277.4 169.4 277.4 299.6s105.5 235.7 235.7 235.7c170.8 0 316.3 176.3 373.9 424.3h48.3C885.6 737.4 767.6 566.3 621.1 509zM324.5 299.6C324.5 195.4 409 111 513.1 111s188.6 84.4 188.6 188.6-84.4 188.6-188.6 188.6-188.6-84.5-188.6-188.6z" fill="#2c2c2c" p-id="4724"></path></svg>