<?xml version="1.0" standalone="no"?><!DOCTYPE svg PUBLIC "-//W3C//DTD SVG 1.1//EN" "http://www.w3.org/Graphics/SVG/1.1/DTD/svg11.dtd"><svg t="1612933528383" class="icon" viewBox="0 0 1100 1024" version="1.1" xmlns="http://www.w3.org/2000/svg" p-id="3899" xmlns:xlink="http://www.w3.org/1999/xlink" width="214.84375" height="200"><defs><style type="text/css"></style></defs><path d="M917.38156799 760.39455966H362.26070699c-15.580393 0-30.424452-14.054368-32.430694-30.712582l-58.191701-409.785676-32.90024-189.92072C232.75135899 80.98271566 189.70251999 42.67202366 140.68831199 42.67202366h-43.539728a32.516066 32.516066 0 1 0 0 65.021462h43.539728c16.156654 0 31.598317 14.523914 33.721946 31.69436l32.974941 190.614369 57.956927 408.142264c5.933355 48.928837 48.501976 87.239529 96.918581 87.239528h555.120861a32.494723 32.494723 0 1 0 0-64.989447z m0 0" p-id="3900" fill="#2c2c2c"></path><path d="M994.44048399 175.21207866a87.442287 87.442287 0 0 0-66.323385-30.018935H336.39298599a32.516066 32.516066 0 1 0 0 65.021461h591.724113a22.66627 22.66627 0 0 1 17.629321 8.056984c7.021848 7.939597 10.58613 20.937487 9.113463 33.167028l-53.837728 308.118276c-1.995571 16.41277-17.661336 29.954906-34.895811 30.05095l-463.516688 34.148806a32.462709 32.462709 0 0 0-30.008264 34.746411 32.601439 32.601439 0 0 0 32.388009 30.146993c0.768348 0 1.579382 0 2.390416-0.096044l461.104929-34.074106c48.501976 0 90.974554-37.531672 96.811866-85.372015l53.880413-308.107605c3.895098-32.313308-5.111649-63.612823-24.736541-85.766861zM371.11805399 996.27743966a66.686216 66.686216 0 1 0-66.686216-66.675544 66.760916 66.760916 0 0 0 66.686216 66.675544z m478.478133 0a66.686216 66.686216 0 1 0-66.686215-66.664873 66.750245 66.750245 0 0 0 66.686215 66.664873z m0 0" p-id="3901" fill="#2c2c2c"></path></svg>